<?xml version="1.0" encoding="UTF-8"?>
<svg version="1.1" xmlns="http://www.w3.org/2000/svg" width="1024" height="1024">
<path d="M0 0 C337.92 0 675.84 0 1024 0 C1024 337.92 1024 675.84 1024 1024 C686.08 1024 348.16 1024 0 1024 C0 686.08 0 348.16 0 0 Z " fill="#000000" transform="translate(0,0)"/>
<path d="M0 0 C4.00987425 0.61412488 8.00526647 1.29424866 12 2 C12.96292969 2.15984375 13.92585938 2.3196875 14.91796875 2.484375 C41.87503847 7.7547136 68.34602939 23.11496408 88 42 C88.47679199 42.44569336 88.95358398 42.89138672 89.44482422 43.35058594 C103.05560464 56.09129077 110.8778387 69.960281 118 87 C118.50660156 88.20350098 119.01320313 89.40700195 119.53515625 90.64697266 C131.16731052 118.31724836 142.02844329 146.28227342 152.49694824 174.41119385 C159.95158846 194.43423169 167.80863798 214.26727441 176 234 C176.26792358 234.64735107 176.53584717 235.29470215 176.81188965 235.96166992 C190.14552149 268.17061415 204.67155595 300.51851941 225 329 C225.45697266 329.64485352 225.91394531 330.28970703 226.38476562 330.95410156 C241.85200752 352.62707718 260.18608053 372.0683162 286 381 C286.91136719 381.3196875 287.82273437 381.639375 288.76171875 381.96875 C318.56564327 390.56374025 353.28254714 380.10563242 379.609375 365.890625 C381.28773438 364.95476562 381.28773438 364.95476562 383 364 C384.03640625 363.43796875 385.0728125 362.8759375 386.140625 362.296875 C400.36348172 354.32909663 413.39059256 344.18737164 425.4375 333.25 C425.94619629 332.78988525 426.45489258 332.32977051 426.97900391 331.85571289 C429.6296639 329.41370673 431.95299929 326.96988578 434 324 C434.66 324.33 435.32 324.66 436 325 C420.23082744 353.25829676 404.28172842 380.33571123 382 404 C381.28199219 404.78375 380.56398438 405.5675 379.82421875 406.375 C361.31298271 425.8972075 334.33047326 440.21437352 307.2578125 441.27734375 C273.5456386 442.06134779 243.00830284 429.33460559 218.46972656 406.31030273 C216.97299863 404.88045517 215.48641351 403.44056014 214 402 C213.47019531 401.49597656 212.94039062 400.99195313 212.39453125 400.47265625 C204.08554598 392.55839712 196.83457691 384.20775878 190 375 C189.49500977 374.3287207 188.99001953 373.65744141 188.46972656 372.96582031 C174.52061765 354.38131521 162.74986146 334.57942512 152 314 C151.43055664 312.91170898 150.86111328 311.82341797 150.27441406 310.70214844 C129.38205953 270.49486321 113.26212979 228.19589042 97.19692993 185.89154053 C80.20636328 140.48769187 80.20636328 140.48769187 61 96 C60.47519043 94.86965332 59.95038086 93.73930664 59.40966797 92.57470703 C48.85840364 69.91211038 37.64504684 47.33593759 23 27 C22.60925293 26.44989258 22.21850586 25.89978516 21.81591797 25.33300781 C16.05770006 17.2898575 9.59995508 10.33856123 2.4921875 3.484375 C1.66976563 2.66453125 0.84734375 1.8446875 0 1 C0 0.67 0 0.34 0 0 Z " fill="#FDFDFC" transform="translate(385,327)"/>
<path d="M0 0 C5.80737602 0.62493915 10.81720315 2.74112356 16.17578125 4.9296875 C17.62442818 5.51618576 17.62442818 5.51618576 19.1023407 6.11453247 C21.13505503 6.94014499 23.16642993 7.76906204 25.1965332 8.60107422 C28.31417253 9.87568379 31.43892508 11.13159897 34.56445312 12.38671875 C36.53952262 13.19158016 38.5141482 13.99753194 40.48828125 14.8046875 C41.89597527 15.36734818 41.89597527 15.36734818 43.33210754 15.94137573 C44.19357895 16.29829498 45.05505035 16.65521423 45.94262695 17.02294922 C47.0846331 17.48808426 47.0846331 17.48808426 48.24971008 17.96261597 C50 19 50 19 51 22 C50.44946289 23.89648438 50.44946289 23.89648438 49.47265625 26.09375 C48.91481445 27.36557129 48.91481445 27.36557129 48.34570312 28.66308594 C47.92224609 29.59926758 47.49878906 30.53544922 47.0625 31.5 C46.62228516 32.49032227 46.18207031 33.48064453 45.72851562 34.50097656 C44.45271177 37.3590189 43.16639575 40.21207015 41.87530518 43.06323242 C40.95079288 45.10887946 40.03132551 47.15673948 39.11279297 49.20507812 C25.51456175 79.5080666 11.61513357 109.41489186 -10 135 C-10.76328613 135.91338135 -10.76328613 135.91338135 -11.54199219 136.84521484 C-22.90852815 150.40559589 -34.7494146 162.47312458 -49 173 C-50.03769531 173.77085937 -51.07539062 174.54171875 -52.14453125 175.3359375 C-72.49748195 189.92861914 -95.26501 200.67137675 -120 205 C-120.93070313 205.19464844 -121.86140625 205.38929688 -122.8203125 205.58984375 C-127.50632376 206.19430466 -132.15615795 206.10406162 -136.875 206.0625 C-137.84953125 206.05798828 -138.8240625 206.05347656 -139.828125 206.04882812 C-142.21881434 206.03710906 -144.6093744 206.02070219 -147 206 C-144.00493766 203.66185029 -141.01266475 201.97064974 -137.56884766 200.34985352 C-116.79827953 190.56263632 -100.04917788 173.91149482 -86 156 C-85.20851563 155.00226563 -84.41703125 154.00453125 -83.6015625 152.9765625 C-47.81942969 107.49055964 -21.61138833 53.40941391 0 0 Z " fill="#FCFCFC" transform="translate(834,493)"/>
<path d="M0 0 C2.53591919 2.2330626 5.00291534 4.52089227 7.453125 6.84765625 C8.41089844 7.75257813 9.36867188 8.6575 10.35546875 9.58984375 C27.1558927 25.74807463 42.69602791 46.65800096 52.453125 67.84765625 C52.123125 68.50765625 51.793125 69.16765625 51.453125 69.84765625 C50.86789062 69.38617188 50.28265625 68.9246875 49.6796875 68.44921875 C18.73127251 44.93585841 -19.83201376 32.13474927 -58.546875 32.34765625 C-59.44384094 32.35008331 -60.34080688 32.35251038 -61.26495361 32.35501099 C-76.18206077 32.43300266 -90.16266319 33.65048268 -104.546875 37.84765625 C-105.61969727 38.15348633 -106.69251953 38.45931641 -107.79785156 38.77441406 C-143.14809551 49.09468453 -174.53903763 67.15253012 -202.546875 90.84765625 C-203.73420978 91.80619427 -204.92168059 92.76456386 -206.109375 93.72265625 C-208.70087729 95.79410723 -208.70087729 95.79410723 -210.546875 98.84765625 C-211.206875 98.51765625 -211.866875 98.18765625 -212.546875 97.84765625 C-185.6527785 57.21457492 -185.6527785 57.21457492 -172.18115234 40.84643555 C-170.95685693 39.34907873 -169.74579089 37.84088838 -168.54150391 36.32739258 C-163.1443201 29.59725532 -157.41488241 23.36431023 -151.296875 17.28515625 C-149.91326782 15.9089209 -149.91326782 15.9089209 -148.50170898 14.50488281 C-141.87149032 7.98792676 -135.24144771 2.07322303 -127.546875 -3.15234375 C-126.99515625 -3.53245605 -126.4434375 -3.91256836 -125.875 -4.30419922 C-85.32723971 -32.07804516 -38.56311057 -32.58937718 0 0 Z " fill="#FCFCFC" transform="translate(419.546875,281.15234375)"/>
<path d="M0 0 C-0.75023437 0.67804688 -1.50046875 1.35609375 -2.2734375 2.0546875 C-12.61961507 11.44329513 -22.37125615 20.97057224 -31 32 C-31.46744629 32.59103516 -31.93489258 33.18207031 -32.41650391 33.79101562 C-60.07847713 68.83607779 -82.03798357 107.56968343 -102.12988281 147.30664062 C-103.74852689 150.50779924 -105.3836036 153.70026062 -107.0234375 156.890625 C-111.1140197 164.90385406 -115.01588721 172.96483902 -118.640625 181.19921875 C-118.95526199 181.91053955 -119.26989899 182.62186035 -119.59407043 183.35473633 C-121.1602679 186.89820078 -122.70979759 190.44732132 -124.23120117 194.01025391 C-124.79812343 195.3052504 -125.36556288 196.60002065 -125.93359375 197.89453125 C-126.42915771 199.04800049 -126.92472168 200.20146973 -127.43530273 201.38989258 C-129 204 -129 204 -130.79223633 205.03564453 C-134.04942408 204.98305696 -136.41430576 203.84464368 -139.390625 202.53515625 C-140.00845856 202.26647736 -140.62629211 201.99779846 -141.2628479 201.72097778 C-143.26393701 200.8464988 -145.25696032 199.9551541 -147.25 199.0625 C-148.61320563 198.4614545 -149.97665005 197.86095027 -151.34033203 197.26098633 C-160.70698714 193.11905472 -169.92124925 188.74343686 -179 184 C-175.15161374 173.45007343 -170.59926293 163.30412746 -165.875 153.125 C-165.11179449 151.47624712 -164.34861111 149.827484 -163.58544922 148.17871094 C-162.08026166 144.92985936 -160.57154921 141.68267426 -159.06054688 138.43652344 C-157.80382499 135.73504687 -156.5530874 133.03110605 -155.31445312 130.32128906 C-147.11481547 112.38660198 -137.49637769 96.27489671 -125 81 C-124.54012695 80.43716309 -124.08025391 79.87432617 -123.60644531 79.29443359 C-113.17961886 66.63328719 -101.97410466 55.07244115 -89 45 C-87.7574362 44.0056784 -86.51527575 43.01085262 -85.2734375 42.015625 C-69.8774404 29.81533757 -21.37968784 -7.49033147 0 0 Z " fill="#FCFCFC" transform="translate(318,332)"/>
<path d="M0 0 C-1.24877829 3.74633486 -3.06047445 5.41041797 -6 8 C-6.99 8 -7.98 8 -9 8 C-8.21366078 6.85050412 -7.42073742 5.70551011 -6.625 4.5625 C-6.18414062 3.92441406 -5.74328125 3.28632813 -5.2890625 2.62890625 C-3.63708041 0.54140161 -2.66927652 0 0 0 Z " fill="#C3C2C2" transform="translate(216,371)"/>
<path d="M0 0 C1.65 0.33 3.3 0.66 5 1 C5.66 2.98 6.32 4.96 7 7 C4.36 5.35 1.72 3.7 -1 2 C-0.67 1.34 -0.34 0.68 0 0 Z " fill="#D5D4D4" transform="translate(465,344)"/>
<path d="M0 0 C2.97 0.33 5.94 0.66 9 1 C8.01 1.33 7.02 1.66 6 2 C5.67 2.99 5.34 3.98 5 5 C3.35 3.35 1.7 1.7 0 0 Z " fill="#D0D0D0" transform="translate(385,327)"/>
</svg>
